<?xml version="1.0" encoding="UTF-8"?>
<svg id="Capa_1" data-name="Capa 1" xmlns="http://www.w3.org/2000/svg" viewBox="0 0 595.28 646.47">
  <defs>
    <style>
      .cls-1 {
        fill: #d79c8f;
      }

      .cls-2 {
        fill: #d2978e;
      }
    </style>
  </defs>
  <path class="cls-1" d="M414.77,394.45c-3.15-22.92-6.23-45.09-9.26-66.5-3.02-21.41-6.05-43.39-9.07-65.93-3.02-22.54-6.42-47.29-10.2-74.24-1.01-8.31-2.02-16.81-3.02-25.5-1.01-8.69-2.4-16.81-4.16-24.37-1.77-7.56-4.41-13.6-7.93-18.14-3.53-4.53-8.57-6.8-15.11-6.8-7.05,0-12.72,2.08-17,6.23-4.29,4.16-7.56,9.63-9.82,16.44-2.27,6.8-3.78,13.98-4.53,21.54s-1.13,14.74-1.13,21.54c0,11.59,1.19,25.5,3.59,41.75,2.39,16.25,5.35,33.63,8.88,52.14,3.52,18.51,7.11,36.97,10.77,55.35,3.65,18.39,6.67,35.52,9.07,51.39,2.39,15.87,3.59,29.35,3.59,40.43,0,4.29-.44,9.01-1.32,14.17-.88,5.17-2.77,10.14-5.67,14.92-2.9,4.79-7.18,8.69-12.85,11.71-5.67,3.02-13.41,4.53-23.24,4.53-13.86,0-25.76-3.71-35.71-11.15-9.95-7.43-18.32-17.32-25.13-29.66-6.8-12.34-12.34-25.88-16.62-40.62-4.29-14.74-7.69-29.41-10.2-44.02-2.52-14.61-4.47-28.02-5.86-40.24-1.39-12.21-2.71-21.85-3.97-28.9-2.02-14.1-3.78-26.57-5.29-37.41-1.51-10.83-2.83-21.41-3.97-31.74-1.13-10.33-2.46-21.66-3.97-34.01-2.02-15.11-4.16-27.45-6.42-37.03-2.27-9.57-6.8-17.13-13.6-22.67-1.51,10.58-2.78,19.33-3.78,26.26-1.01,6.93-1.89,13.04-2.65,18.32-.75,5.29-1.51,10.58-2.27,15.87-.76,5.29-1.64,11.52-2.64,18.7-1.01,7.18-2.27,16.19-3.78,27.02-1.51,11.34-3.02,24.69-4.53,40.05-1.51,15.37-2.4,31.74-2.65,49.12-.25,17.38.57,34.76,2.46,52.14,1.89,17.38,5.35,33.69,10.39,48.93,5.04,15.24,12.03,28.53,20.97,39.86,8.94,11.33,20.34,19.52,34.19,24.56v1.89h-117.88l58.94-314.36c1-5.79,2.14-11.65,3.4-17.57,1.26-5.92,1.89-11.58,1.89-17s-1.26-10.26-3.78-14.55c-2.52-4.28-7.06-7.56-13.6-9.82-2.77-.5-5.8-1-9.07-1.51-3.28-.5-6.8-.88-10.58-1.13v-1.89h81.61c8.81,0,16.18,3.21,22.1,9.63,5.92,6.42,9.76,15.56,11.52,27.39,3.02,21.91,5.79,41.82,8.31,59.7,2.51,17.89,4.91,35.01,7.18,51.39,2.27,16.38,4.59,33,6.99,49.87,2.39,16.88,5.1,35.14,8.12,54.79,1.51,9.82,3.59,20.16,6.23,30.98,2.65,10.83,5.92,20.97,9.82,30.42,3.9,9.45,8.25,17.13,13.04,23.05,4.78,5.92,10.07,8.88,15.87,8.88,7.56,0,12.72-2.7,15.49-8.12,2.77-5.41,4.03-12.85,3.78-22.29-.25-9.45-1.39-20.34-3.4-32.68-2.02-12.34-4.16-25.44-6.42-39.29-1.51-8.81-3.47-19.39-5.86-31.74-2.4-12.34-4.91-25.63-7.56-39.86-2.64-14.23-4.98-28.65-6.99-43.26-2.02-14.61-3.28-28.72-3.78-42.32-1.01-28.46,4.53-50.63,16.62-66.5s28.96-23.8,50.63-23.8c12.59,0,22.48,2.9,29.66,8.69,7.18,5.8,12.53,13.48,16.06,23.05,3.52,9.58,6.17,20.16,7.93,31.74,1.76,11.59,3.52,23.3,5.29,35.14,4.03,27.2,7.62,52.14,10.77,74.81,3.15,22.67,6.17,44.71,9.07,66.12,2.89,21.41,5.86,43.52,8.88,66.31,3.02,22.8,6.42,48.05,10.2,75.76h-56.68c-3.78-27.71-7.24-53.02-10.39-75.95"/>
  <g>
    <path class="cls-2" d="M150.11,557.07h-13.55c1.28-4.23,2.49-8.17,3.61-11.84,1.12-3.67,2.18-7.18,3.2-10.54s2.03-6.71,3.05-10.07c1.01-3.36,2.07-6.83,3.17-10.41,1.1-3.58,2.27-7.45,3.51-11.59.46-1.45,1.04-2.81,1.74-4.07.7-1.26,1.61-2.29,2.7-3.08,1.1-.79,2.39-1.18,3.88-1.18s2.84.39,3.92,1.18c1.08.79,1.98,1.81,2.7,3.08.72,1.26,1.29,2.62,1.71,4.07,1.24,4.14,2.41,8.01,3.51,11.59s2.15,7.05,3.17,10.41c1.02,3.36,2.04,6.71,3.08,10.07,1.04,3.36,2.1,6.87,3.2,10.54,1.1,3.67,2.29,7.61,3.57,11.84h-9.51c-1.28-4.31-2.48-8.3-3.57-11.96-1.1-3.67-2.14-7.2-3.14-10.6h-20.76c-.08,3.44-.1,6.69-.06,9.76.04,3.07.14,5.73.31,7.99.17,2.26.35,3.86.56,4.82ZM149.37,533.57h20.39c-.95-3.27-1.93-6.52-2.92-9.73-.99-3.21-2.02-6.56-3.08-10.04s-2.23-7.21-3.51-11.19c-.21-.7-.5-1.26-.87-1.68-.37-.41-.91-.62-1.62-.62-1.12,0-2.11.64-2.98,1.93-.87,1.29-1.62,3.04-2.24,5.25-.62,2.22-1.15,4.75-1.58,7.58-.43,2.84-.78,5.84-1.03,9.01-.25,3.17-.43,6.33-.56,9.48Z"/>
    <path class="cls-2" d="M203.01,557.07h-9.01v-62.15h31.51c2.28,0,4.15.54,5.62,1.62,1.47,1.08,2.58,2.44,3.33,4.07.75,1.64,1.12,3.3,1.12,5,0,2.49-.5,4.61-1.49,6.37-.99,1.76-2.27,3.25-3.82,4.47-1.55,1.22-3.21,2.24-4.97,3.05-1.76.81-3.42,1.51-4.97,2.11s-2.83,1.16-3.82,1.68c-.99.52-1.49,1.09-1.49,1.71s.34,1.65,1.03,3.08,1.62,3.12,2.8,5.07c1.18,1.95,2.5,3.99,3.95,6.12,1.45,2.13,2.95,4.24,4.51,6.31,1.55,2.07,3.04,3.95,4.47,5.62,1.43,1.68,2.72,3.01,3.88,4.01,1.16.99,2.05,1.49,2.67,1.49v.37h-10.26c-1.2,0-2.12-.1-2.77-.31-.64-.21-1.25-.64-1.83-1.31-.58-.66-1.41-1.7-2.49-3.11-1.04-1.37-2.16-2.91-3.36-4.63-1.2-1.72-2.38-3.49-3.54-5.31-1.16-1.82-2.22-3.58-3.17-5.28-.95-1.7-1.71-3.24-2.27-4.63-.56-1.39-.84-2.48-.84-3.26,0-.99.46-1.88,1.37-2.67.91-.79,2.07-1.57,3.48-2.36,1.41-.79,2.92-1.67,4.54-2.64,1.62-.97,3.13-2.13,4.54-3.48,1.41-1.35,2.57-2.99,3.48-4.94.91-1.95,1.37-4.27,1.37-6.96,0-1.95-.34-3.7-1.03-5.25-.68-1.55-1.78-2.79-3.29-3.7s-3.49-1.37-5.94-1.37h-13.3v61.22Z"/>
    <path class="cls-2" d="M264.35,557.69c-4.93,0-9.24-1.33-12.93-3.98-3.69-2.65-6.55-6.35-8.58-11.09-2.03-4.74-3.04-10.29-3.04-16.63s1.01-11.88,3.04-16.63c2.03-4.74,4.89-8.44,8.58-11.09,3.69-2.65,8-3.98,12.93-3.98,3.69,0,7.03.76,10.04,2.27,3,1.51,5.59,3.67,7.77,6.46,2.17,2.8,3.84,6.13,5,10.01s1.74,8.19,1.74,12.96-.58,9.08-1.74,12.96c-1.16,3.88-2.83,7.21-5,10.01-2.18,2.8-4.77,4.95-7.77,6.46-3,1.51-6.35,2.27-10.04,2.27ZM249.5,525.93c0,6.17.61,11.57,1.83,16.19,1.22,4.62,2.95,8.21,5.19,10.78,2.24,2.57,4.83,3.85,7.77,3.85s5.59-1.28,7.83-3.85c2.24-2.57,3.98-6.16,5.22-10.78,1.24-4.62,1.86-10.02,1.86-16.19s-.62-11.56-1.86-16.16-2.98-8.18-5.22-10.75c-2.24-2.57-4.85-3.85-7.83-3.85s-5.53,1.29-7.77,3.85c-2.24,2.57-3.97,6.15-5.19,10.75-1.22,4.6-1.83,9.99-1.83,16.16Z"/>
    <path class="cls-2" d="M312.28,557.07h-19.39l9.7-51.71c.17-.95.35-1.92.56-2.89s.31-1.91.31-2.8-.21-1.69-.62-2.39c-.42-.7-1.16-1.24-2.24-1.62-.46-.08-.95-.17-1.49-.25-.54-.08-1.12-.14-1.74-.19v-.31h13.43c1.45,0,2.66.53,3.64,1.58s1.61,2.56,1.9,4.51c.5,3.6.95,6.88,1.37,9.82.41,2.94.81,5.76,1.18,8.45.37,2.69.76,5.43,1.15,8.2.39,2.78.84,5.78,1.34,9.01.25,1.62.59,3.32,1.03,5.1.43,1.78.97,3.45,1.62,5,.64,1.55,1.36,2.82,2.14,3.79.79.97,1.66,1.46,2.61,1.46,1.24,0,2.09-.45,2.55-1.34.46-.89.66-2.11.62-3.67-.04-1.55-.23-3.35-.56-5.38s-.68-4.18-1.06-6.46c-.25-1.45-.57-3.19-.96-5.22-.39-2.03-.81-4.22-1.24-6.56-.44-2.34-.82-4.71-1.15-7.12-.33-2.4-.54-4.72-.62-6.96-.17-4.68.74-8.33,2.73-10.94,1.99-2.61,4.76-3.92,8.33-3.92,2.07,0,3.7.48,4.88,1.43,1.18.95,2.06,2.22,2.64,3.79.58,1.58,1.01,3.32,1.3,5.22.29,1.91.58,3.83.87,5.78.66,4.47,1.25,8.58,1.77,12.31.52,3.73,1.02,7.36,1.49,10.88.48,3.52.96,7.16,1.46,10.91.5,3.75,1.06,7.9,1.68,12.46h-9.32c-.62-4.56-1.19-8.72-1.71-12.49-.52-3.77-1.03-7.42-1.52-10.94-.5-3.52-.99-7.14-1.49-10.85-.5-3.71-1.06-7.78-1.68-12.21-.17-1.37-.33-2.77-.5-4.2-.17-1.43-.39-2.77-.68-4.01-.29-1.24-.72-2.24-1.3-2.98s-1.41-1.12-2.49-1.12c-1.16,0-2.09.34-2.8,1.03s-1.24,1.58-1.62,2.7c-.37,1.12-.62,2.3-.75,3.54s-.19,2.42-.19,3.54c0,1.91.2,4.2.59,6.87.39,2.67.88,5.53,1.46,8.58.58,3.05,1.17,6.08,1.77,9.11.6,3.03,1.1,5.84,1.49,8.45s.59,4.83.59,6.65c0,.71-.07,1.48-.22,2.33-.14.85-.46,1.67-.93,2.46-.48.79-1.18,1.43-2.11,1.93s-2.21.75-3.82.75c-2.28,0-4.24-.61-5.87-1.83-1.64-1.22-3.01-2.85-4.13-4.88-1.12-2.03-2.03-4.26-2.74-6.68-.71-2.42-1.26-4.84-1.68-7.24-.42-2.4-.74-4.61-.96-6.62-.23-2.01-.45-3.59-.65-4.75-.33-2.32-.62-4.37-.87-6.15-.25-1.78-.47-3.52-.65-5.22s-.4-3.56-.65-5.59c-.33-2.49-.68-4.52-1.06-6.09-.37-1.57-1.12-2.82-2.24-3.73-.25,1.74-.46,3.18-.62,4.32-.17,1.14-.31,2.14-.44,3.01s-.25,1.74-.37,2.61c-.12.87-.27,1.9-.43,3.08-.17,1.18-.37,2.66-.62,4.44-.25,1.87-.5,4.06-.75,6.59-.25,2.53-.39,5.22-.44,8.08-.04,2.86.09,5.72.4,8.58.31,2.86.88,5.54,1.71,8.05.83,2.51,1.98,4.69,3.45,6.56,1.47,1.86,3.35,3.21,5.62,4.04v.31Z"/>
    <path class="cls-2" d="M373.5,557.07h-13.55c1.28-4.23,2.49-8.17,3.6-11.84,1.12-3.67,2.19-7.18,3.2-10.54,1.01-3.36,2.03-6.71,3.05-10.07,1.01-3.36,2.07-6.83,3.17-10.41,1.1-3.58,2.27-7.45,3.51-11.59.46-1.45,1.04-2.81,1.74-4.07.7-1.26,1.61-2.29,2.7-3.08,1.1-.79,2.39-1.18,3.88-1.18s2.84.39,3.92,1.18c1.08.79,1.98,1.81,2.7,3.08.72,1.26,1.29,2.62,1.71,4.07,1.24,4.14,2.41,8.01,3.51,11.59,1.1,3.58,2.15,7.05,3.17,10.41,1.01,3.36,2.04,6.71,3.08,10.07,1.04,3.36,2.1,6.87,3.2,10.54,1.1,3.67,2.29,7.61,3.57,11.84h-9.51c-1.29-4.31-2.48-8.3-3.57-11.96s-2.14-7.2-3.14-10.6h-20.76c-.08,3.44-.1,6.69-.06,9.76.04,3.07.14,5.73.31,7.99.17,2.26.35,3.86.56,4.82ZM372.75,533.57h20.39c-.95-3.27-1.93-6.52-2.92-9.73-1-3.21-2.02-6.56-3.08-10.04s-2.23-7.21-3.51-11.19c-.21-.7-.5-1.26-.87-1.68-.37-.41-.91-.62-1.62-.62-1.12,0-2.11.64-2.98,1.93-.87,1.29-1.62,3.04-2.24,5.25-.62,2.22-1.15,4.75-1.58,7.58-.43,2.84-.78,5.84-1.03,9.01-.25,3.17-.44,6.33-.56,9.48Z"/>
    <path class="cls-2" d="M434.66,557.69c-2.82,0-5.55-.34-8.2-1.03-2.65-.68-5.05-1.57-7.18-2.67s-3.8-2.25-5-3.45l3.73-8.64c2.24,1.37,4.41,2.6,6.53,3.7,2.11,1.1,4.36,1.96,6.74,2.58,2.38.62,5.04.93,7.99.93,1.37,0,2.86-.07,4.47-.22,1.62-.15,3.24-.4,4.88-.78,1.64-.37,3.13-.91,4.47-1.62,1.35-.7,2.42-1.59,3.23-2.67.81-1.08,1.21-2.4,1.21-3.98,0-1.49-.44-2.71-1.31-3.67s-2.04-1.73-3.51-2.33c-1.47-.6-3.12-1.09-4.94-1.46-1.82-.37-3.71-.69-5.66-.96-1.95-.27-3.83-.55-5.66-.84-5.22-.91-9.35-2.18-12.4-3.79-3.04-1.62-5.22-3.66-6.53-6.12-1.3-2.46-1.96-5.4-1.96-8.79,0-1.91.39-3.88,1.18-5.94.79-2.05,2.08-3.96,3.88-5.72,1.8-1.76,4.22-3.19,7.24-4.29,3.02-1.1,6.78-1.65,11.25-1.65,2.15,0,4.42.13,6.81.4,2.38.27,4.62.71,6.71,1.3,2.09.6,3.78,1.42,5.07,2.46l-2.55,9.45c-1.2-.87-2.85-1.66-4.94-2.36-2.09-.7-4.43-1.27-7.02-1.71-2.59-.44-5.21-.65-7.86-.65-2.28,0-4.53.18-6.74.53-2.22.35-4.23.9-6.03,1.65-1.8.75-3.24,1.72-4.32,2.92-1.08,1.2-1.62,2.65-1.62,4.35,0,1.41.4,2.55,1.21,3.42.81.87,1.88,1.53,3.23,1.99,1.35.46,2.84.78,4.48.96,1.64.19,3.28.31,4.94.37,1.66.06,3.19.14,4.6.22,4.68.33,8.79,1.21,12.34,2.64s6.31,3.46,8.3,6.09c1.99,2.63,2.98,5.89,2.98,9.79,0,3.03-.66,5.75-1.99,8.17-1.33,2.42-3.12,4.49-5.38,6.18-2.26,1.7-4.83,2.99-7.71,3.88-2.88.89-5.87,1.34-8.98,1.34Z"/>
  </g>
</svg>